<mxfile host="app.diagrams.net" modified="2021-12-14T08:54:08.849Z" agent="5.0 (Windows NT 6.1; Win64; x64) AppleWebKit/537.36 (KHTML, like Gecko) Chrome/96.0.4664.110 Safari/537.36" etag="D1h43un-whogUyjZzPzO" version="15.9.5" type="github">
  <diagram id="aShKJb1EcJVqntHxSxEi" name="Page-1">
    <mxGraphModel dx="-249" dy="681" grid="1" gridSize="10" guides="1" tooltips="1" connect="1" arrows="1" fold="1" page="1" pageScale="1" pageWidth="827" pageHeight="1169" math="0" shadow="0">
      <root>
        <mxCell id="0" />
        <mxCell id="1" parent="0" />
        <mxCell id="8L_f6q-vc3C_Bcib5PFj-7" value="" style="edgeStyle=orthogonalEdgeStyle;rounded=0;orthogonalLoop=1;jettySize=auto;html=1;" parent="1" source="8L_f6q-vc3C_Bcib5PFj-8" target="8L_f6q-vc3C_Bcib5PFj-11" edge="1">
          <mxGeometry relative="1" as="geometry" />
        </mxCell>
        <mxCell id="8L_f6q-vc3C_Bcib5PFj-8" value="i=0, j=0" style="whiteSpace=wrap;html=1;rounded=0;" parent="1" vertex="1">
          <mxGeometry x="999" y="230" width="80" height="20" as="geometry" />
        </mxCell>
        <mxCell id="qnYledQh9NX3tpmkD9LS-4" value="" style="edgeStyle=orthogonalEdgeStyle;rounded=0;orthogonalLoop=1;jettySize=auto;html=1;" parent="1" source="8L_f6q-vc3C_Bcib5PFj-11" edge="1">
          <mxGeometry relative="1" as="geometry">
            <mxPoint x="1039" y="380" as="targetPoint" />
          </mxGeometry>
        </mxCell>
        <mxCell id="8L_f6q-vc3C_Bcib5PFj-11" value="i&amp;lt;N" style="rhombus;whiteSpace=wrap;html=1;rounded=0;" parent="1" vertex="1">
          <mxGeometry x="979" y="280" width="120" height="40" as="geometry" />
        </mxCell>
        <mxCell id="8L_f6q-vc3C_Bcib5PFj-13" value="" style="edgeStyle=orthogonalEdgeStyle;rounded=0;orthogonalLoop=1;jettySize=auto;html=1;entryX=0.5;entryY=0;entryDx=0;entryDy=0;startArrow=none;exitX=0.5;exitY=1;exitDx=0;exitDy=0;" parent="1" source="8L_f6q-vc3C_Bcib5PFj-18" target="8L_f6q-vc3C_Bcib5PFj-11" edge="1">
          <mxGeometry relative="1" as="geometry">
            <mxPoint x="1059" y="260" as="targetPoint" />
            <Array as="points">
              <mxPoint x="1033" y="653" />
              <mxPoint x="850" y="653" />
              <mxPoint x="850" y="260" />
              <mxPoint x="1039" y="260" />
            </Array>
            <mxPoint x="1034" y="490" as="sourcePoint" />
          </mxGeometry>
        </mxCell>
        <mxCell id="8L_f6q-vc3C_Bcib5PFj-16" value="нет" style="text;html=1;align=center;verticalAlign=middle;resizable=0;points=[];autosize=1;strokeColor=none;fillColor=none;" parent="1" vertex="1">
          <mxGeometry x="1089.5" y="380" width="40" height="20" as="geometry" />
        </mxCell>
        <mxCell id="8L_f6q-vc3C_Bcib5PFj-18" value="i=i+1" style="rounded=0;whiteSpace=wrap;html=1;" parent="1" vertex="1">
          <mxGeometry x="998.25" y="620" width="70" height="20" as="geometry" />
        </mxCell>
        <mxCell id="8L_f6q-vc3C_Bcib5PFj-27" value="" style="edgeStyle=orthogonalEdgeStyle;rounded=0;orthogonalLoop=1;jettySize=auto;html=1;" parent="1" target="8L_f6q-vc3C_Bcib5PFj-28" edge="1">
          <mxGeometry relative="1" as="geometry">
            <mxPoint x="1039.0285714285715" y="60" as="sourcePoint" />
          </mxGeometry>
        </mxCell>
        <mxCell id="ysKvt91dj6pceFcTKJD--3" value="" style="edgeStyle=orthogonalEdgeStyle;rounded=0;orthogonalLoop=1;jettySize=auto;html=1;exitX=0.496;exitY=0.839;exitDx=0;exitDy=0;exitPerimeter=0;" edge="1" parent="1" source="8L_f6q-vc3C_Bcib5PFj-26">
          <mxGeometry relative="1" as="geometry">
            <mxPoint x="1039" y="230" as="targetPoint" />
          </mxGeometry>
        </mxCell>
        <mxCell id="8L_f6q-vc3C_Bcib5PFj-26" value="&quot;Matrix: &quot;" style="shape=document;whiteSpace=wrap;html=1;boundedLbl=1;" parent="1" vertex="1">
          <mxGeometry x="999" y="140" width="80" height="60" as="geometry" />
        </mxCell>
        <mxCell id="ysKvt91dj6pceFcTKJD--2" value="" style="edgeStyle=orthogonalEdgeStyle;rounded=0;orthogonalLoop=1;jettySize=auto;html=1;" edge="1" parent="1" source="8L_f6q-vc3C_Bcib5PFj-28" target="8L_f6q-vc3C_Bcib5PFj-26">
          <mxGeometry relative="1" as="geometry" />
        </mxCell>
        <mxCell id="8L_f6q-vc3C_Bcib5PFj-28" value="sum_temp = 0" style="whiteSpace=wrap;html=1;" parent="1" vertex="1">
          <mxGeometry x="989" y="90" width="101" height="30" as="geometry" />
        </mxCell>
        <mxCell id="8L_f6q-vc3C_Bcib5PFj-31" value="начало" style="rounded=1;whiteSpace=wrap;html=1;" parent="1" vertex="1">
          <mxGeometry x="999" y="30" width="81" height="30" as="geometry" />
        </mxCell>
        <mxCell id="ysKvt91dj6pceFcTKJD--5" value="" style="edgeStyle=orthogonalEdgeStyle;rounded=0;orthogonalLoop=1;jettySize=auto;html=1;exitX=0.501;exitY=0.847;exitDx=0;exitDy=0;exitPerimeter=0;" edge="1" parent="1" source="8L_f6q-vc3C_Bcib5PFj-32">
          <mxGeometry relative="1" as="geometry">
            <mxPoint x="981" y="560" as="targetPoint" />
          </mxGeometry>
        </mxCell>
        <mxCell id="8L_f6q-vc3C_Bcib5PFj-32" value="matrix[i][j]&amp;nbsp;" style="shape=document;whiteSpace=wrap;html=1;boundedLbl=1;" parent="1" vertex="1">
          <mxGeometry x="923.63" y="490" width="115" height="50" as="geometry" />
        </mxCell>
        <mxCell id="qnYledQh9NX3tpmkD9LS-13" value="" style="edgeStyle=orthogonalEdgeStyle;rounded=0;orthogonalLoop=1;jettySize=auto;html=1;" parent="1" edge="1">
          <mxGeometry relative="1" as="geometry">
            <mxPoint x="1039" y="380" as="targetPoint" />
            <mxPoint x="992" y="580" as="sourcePoint" />
            <Array as="points">
              <mxPoint x="992" y="600" />
              <mxPoint x="900" y="600" />
              <mxPoint x="900" y="370" />
              <mxPoint x="1039" y="370" />
            </Array>
          </mxGeometry>
        </mxCell>
        <mxCell id="ysKvt91dj6pceFcTKJD--4" value="" style="edgeStyle=orthogonalEdgeStyle;rounded=0;orthogonalLoop=1;jettySize=auto;html=1;" edge="1" parent="1" source="8L_f6q-vc3C_Bcib5PFj-34">
          <mxGeometry relative="1" as="geometry">
            <mxPoint x="981" y="490" as="targetPoint" />
          </mxGeometry>
        </mxCell>
        <mxCell id="8L_f6q-vc3C_Bcib5PFj-34" value="matrix[i][j] = rand() % 100" style="whiteSpace=wrap;html=1;" parent="1" vertex="1">
          <mxGeometry x="926.13" y="440" width="110" height="30" as="geometry" />
        </mxCell>
        <mxCell id="8L_f6q-vc3C_Bcib5PFj-38" value="да" style="text;html=1;align=center;verticalAlign=middle;resizable=0;points=[];autosize=1;strokeColor=none;fillColor=none;" parent="1" vertex="1">
          <mxGeometry x="1049" y="320" width="30" height="20" as="geometry" />
        </mxCell>
        <mxCell id="qnYledQh9NX3tpmkD9LS-12" value="" style="edgeStyle=orthogonalEdgeStyle;rounded=0;orthogonalLoop=1;jettySize=auto;html=1;entryX=0.5;entryY=0;entryDx=0;entryDy=0;" parent="1" target="qnYledQh9NX3tpmkD9LS-6" edge="1">
          <mxGeometry relative="1" as="geometry">
            <mxPoint x="1039.0285714285715" y="360" as="sourcePoint" />
          </mxGeometry>
        </mxCell>
        <mxCell id="qnYledQh9NX3tpmkD9LS-7" value="" style="edgeStyle=orthogonalEdgeStyle;rounded=0;orthogonalLoop=1;jettySize=auto;html=1;" parent="1" source="qnYledQh9NX3tpmkD9LS-6" edge="1">
          <mxGeometry relative="1" as="geometry">
            <mxPoint x="958" y="440" as="targetPoint" />
            <Array as="points">
              <mxPoint x="958" y="400" />
              <mxPoint x="958" y="440" />
            </Array>
          </mxGeometry>
        </mxCell>
        <mxCell id="qnYledQh9NX3tpmkD9LS-11" value="" style="edgeStyle=orthogonalEdgeStyle;rounded=0;orthogonalLoop=1;jettySize=auto;html=1;exitX=1;exitY=0.5;exitDx=0;exitDy=0;entryX=0.588;entryY=0.03;entryDx=0;entryDy=0;entryPerimeter=0;" parent="1" source="qnYledQh9NX3tpmkD9LS-6" target="8L_f6q-vc3C_Bcib5PFj-18" edge="1">
          <mxGeometry relative="1" as="geometry">
            <mxPoint x="1039" y="616" as="targetPoint" />
            <Array as="points">
              <mxPoint x="1110" y="400" />
              <mxPoint x="1110" y="603" />
              <mxPoint x="1039" y="603" />
            </Array>
          </mxGeometry>
        </mxCell>
        <mxCell id="qnYledQh9NX3tpmkD9LS-6" value="j&amp;lt;N" style="rhombus;whiteSpace=wrap;html=1;rounded=0;" parent="1" vertex="1">
          <mxGeometry x="979" y="380" width="120" height="40" as="geometry" />
        </mxCell>
        <mxCell id="qnYledQh9NX3tpmkD9LS-9" value="да" style="text;html=1;align=center;verticalAlign=middle;resizable=0;points=[];autosize=1;strokeColor=none;fillColor=none;" parent="1" vertex="1">
          <mxGeometry x="948.3800000000001" y="380" width="30" height="20" as="geometry" />
        </mxCell>
        <mxCell id="qnYledQh9NX3tpmkD9LS-15" value="" style="edgeStyle=orthogonalEdgeStyle;rounded=0;orthogonalLoop=1;jettySize=auto;html=1;exitX=1;exitY=0.5;exitDx=0;exitDy=0;" parent="1" source="8L_f6q-vc3C_Bcib5PFj-11" edge="1">
          <mxGeometry relative="1" as="geometry">
            <mxPoint x="1148" y="300" as="targetPoint" />
          </mxGeometry>
        </mxCell>
        <mxCell id="qnYledQh9NX3tpmkD9LS-10" value="нет" style="text;html=1;align=center;verticalAlign=middle;resizable=0;points=[];autosize=1;strokeColor=none;fillColor=none;" parent="1" vertex="1">
          <mxGeometry x="1099" y="280" width="40" height="20" as="geometry" />
        </mxCell>
        <mxCell id="qnYledQh9NX3tpmkD9LS-17" value="1" style="ellipse;whiteSpace=wrap;html=1;aspect=fixed;" parent="1" vertex="1">
          <mxGeometry x="1148" y="285" width="30" height="30" as="geometry" />
        </mxCell>
        <mxCell id="qnYledQh9NX3tpmkD9LS-32" value="j=j+1" style="whiteSpace=wrap;html=1;" parent="1" vertex="1">
          <mxGeometry x="949.51" y="560" width="80" height="20" as="geometry" />
        </mxCell>
        <mxCell id="IL574nIS1ITczs5gziKt-34" value="" style="edgeStyle=orthogonalEdgeStyle;rounded=0;orthogonalLoop=1;jettySize=auto;html=1;entryX=0.5;entryY=0;entryDx=0;entryDy=0;" parent="1" source="IL574nIS1ITczs5gziKt-33" edge="1">
          <mxGeometry relative="1" as="geometry">
            <mxPoint x="1003.51" y="863" as="targetPoint" />
            <Array as="points">
              <mxPoint x="1003.51" y="1100" />
              <mxPoint x="871.51" y="1100" />
              <mxPoint x="871.51" y="840" />
              <mxPoint x="1003.51" y="840" />
            </Array>
          </mxGeometry>
        </mxCell>
        <mxCell id="ysKvt91dj6pceFcTKJD--34" value="" style="edgeStyle=orthogonalEdgeStyle;rounded=0;orthogonalLoop=1;jettySize=auto;html=1;entryX=0.5;entryY=0;entryDx=0;entryDy=0;" edge="1" parent="1" source="ysKvt91dj6pceFcTKJD--1" target="ysKvt91dj6pceFcTKJD--8">
          <mxGeometry relative="1" as="geometry">
            <mxPoint x="1410" y="100" as="targetPoint" />
          </mxGeometry>
        </mxCell>
        <mxCell id="ysKvt91dj6pceFcTKJD--1" value="1" style="ellipse;whiteSpace=wrap;html=1;aspect=fixed;" vertex="1" parent="1">
          <mxGeometry x="1394.97" y="40" width="30" height="30" as="geometry" />
        </mxCell>
        <mxCell id="ysKvt91dj6pceFcTKJD--7" value="" style="edgeStyle=orthogonalEdgeStyle;rounded=0;orthogonalLoop=1;jettySize=auto;html=1;" edge="1" parent="1" source="ysKvt91dj6pceFcTKJD--8" target="ysKvt91dj6pceFcTKJD--10">
          <mxGeometry relative="1" as="geometry" />
        </mxCell>
        <mxCell id="ysKvt91dj6pceFcTKJD--8" value="i=0, j=0" style="whiteSpace=wrap;html=1;rounded=0;" vertex="1" parent="1">
          <mxGeometry x="1369.97" y="90" width="80" height="20" as="geometry" />
        </mxCell>
        <mxCell id="ysKvt91dj6pceFcTKJD--9" value="" style="edgeStyle=orthogonalEdgeStyle;rounded=0;orthogonalLoop=1;jettySize=auto;html=1;" edge="1" parent="1">
          <mxGeometry relative="1" as="geometry">
            <mxPoint x="1409.97" y="240" as="targetPoint" />
            <mxPoint x="1410" y="220" as="sourcePoint" />
          </mxGeometry>
        </mxCell>
        <mxCell id="ysKvt91dj6pceFcTKJD--31" value="" style="edgeStyle=orthogonalEdgeStyle;rounded=0;orthogonalLoop=1;jettySize=auto;html=1;entryX=0.5;entryY=0;entryDx=0;entryDy=0;" edge="1" parent="1" source="ysKvt91dj6pceFcTKJD--10" target="ysKvt91dj6pceFcTKJD--30">
          <mxGeometry relative="1" as="geometry" />
        </mxCell>
        <mxCell id="ysKvt91dj6pceFcTKJD--10" value="j&amp;lt;N" style="rhombus;whiteSpace=wrap;html=1;rounded=0;" vertex="1" parent="1">
          <mxGeometry x="1349.97" y="140" width="120" height="40" as="geometry" />
        </mxCell>
        <mxCell id="ysKvt91dj6pceFcTKJD--11" value="" style="edgeStyle=orthogonalEdgeStyle;rounded=0;orthogonalLoop=1;jettySize=auto;html=1;entryX=0.5;entryY=0;entryDx=0;entryDy=0;startArrow=none;" edge="1" parent="1" target="ysKvt91dj6pceFcTKJD--10">
          <mxGeometry relative="1" as="geometry">
            <mxPoint x="1429.97" y="120" as="targetPoint" />
            <Array as="points">
              <mxPoint x="1210" y="550" />
              <mxPoint x="1210" y="121" />
              <mxPoint x="1410" y="121" />
            </Array>
            <mxPoint x="1280" y="550" as="sourcePoint" />
          </mxGeometry>
        </mxCell>
        <mxCell id="ysKvt91dj6pceFcTKJD--12" value="нет" style="text;html=1;align=center;verticalAlign=middle;resizable=0;points=[];autosize=1;strokeColor=none;fillColor=none;" vertex="1" parent="1">
          <mxGeometry x="1460.47" y="240" width="40" height="20" as="geometry" />
        </mxCell>
        <mxCell id="ysKvt91dj6pceFcTKJD--13" value="j=j+1" style="rounded=0;whiteSpace=wrap;html=1;" vertex="1" parent="1">
          <mxGeometry x="1280.38" y="540" width="70" height="20" as="geometry" />
        </mxCell>
        <mxCell id="ysKvt91dj6pceFcTKJD--16" value="" style="edgeStyle=orthogonalEdgeStyle;rounded=0;orthogonalLoop=1;jettySize=auto;html=1;exitX=0.5;exitY=1;exitDx=0;exitDy=0;" edge="1" parent="1" source="ysKvt91dj6pceFcTKJD--33">
          <mxGeometry relative="1" as="geometry">
            <mxPoint x="1409.97" y="240" as="targetPoint" />
            <mxPoint x="1400" y="450" as="sourcePoint" />
            <Array as="points">
              <mxPoint x="1400" y="490" />
              <mxPoint x="1240" y="490" />
              <mxPoint x="1240" y="230" />
              <mxPoint x="1410" y="230" />
            </Array>
          </mxGeometry>
        </mxCell>
        <mxCell id="ysKvt91dj6pceFcTKJD--19" value="да" style="text;html=1;align=center;verticalAlign=middle;resizable=0;points=[];autosize=1;strokeColor=none;fillColor=none;" vertex="1" parent="1">
          <mxGeometry x="1409.6000000000001" y="170" width="30" height="20" as="geometry" />
        </mxCell>
        <mxCell id="ysKvt91dj6pceFcTKJD--20" value="" style="edgeStyle=orthogonalEdgeStyle;rounded=0;orthogonalLoop=1;jettySize=auto;html=1;entryX=0.5;entryY=0;entryDx=0;entryDy=0;" edge="1" parent="1" target="ysKvt91dj6pceFcTKJD--23">
          <mxGeometry relative="1" as="geometry">
            <mxPoint x="1409.9985714285715" y="220" as="sourcePoint" />
          </mxGeometry>
        </mxCell>
        <mxCell id="ysKvt91dj6pceFcTKJD--21" value="" style="edgeStyle=orthogonalEdgeStyle;rounded=0;orthogonalLoop=1;jettySize=auto;html=1;entryX=0.5;entryY=0;entryDx=0;entryDy=0;" edge="1" parent="1" source="ysKvt91dj6pceFcTKJD--23" target="ysKvt91dj6pceFcTKJD--39">
          <mxGeometry relative="1" as="geometry">
            <mxPoint x="1328.97" y="300" as="targetPoint" />
            <Array as="points">
              <mxPoint x="1329" y="260" />
              <mxPoint x="1329" y="290" />
              <mxPoint x="1410" y="290" />
            </Array>
          </mxGeometry>
        </mxCell>
        <mxCell id="ysKvt91dj6pceFcTKJD--22" value="" style="edgeStyle=orthogonalEdgeStyle;rounded=0;orthogonalLoop=1;jettySize=auto;html=1;exitX=1;exitY=0.5;exitDx=0;exitDy=0;entryX=0.548;entryY=0.02;entryDx=0;entryDy=0;entryPerimeter=0;" edge="1" parent="1" source="ysKvt91dj6pceFcTKJD--23" target="ysKvt91dj6pceFcTKJD--60">
          <mxGeometry relative="1" as="geometry">
            <mxPoint x="1540" y="540" as="targetPoint" />
            <Array as="points">
              <mxPoint x="1580" y="260" />
              <mxPoint x="1580" y="480" />
              <mxPoint x="1498" y="480" />
            </Array>
          </mxGeometry>
        </mxCell>
        <mxCell id="ysKvt91dj6pceFcTKJD--23" value="i&amp;lt;N" style="rhombus;whiteSpace=wrap;html=1;rounded=0;" vertex="1" parent="1">
          <mxGeometry x="1349.97" y="240" width="120" height="40" as="geometry" />
        </mxCell>
        <mxCell id="ysKvt91dj6pceFcTKJD--24" value="да" style="text;html=1;align=center;verticalAlign=middle;resizable=0;points=[];autosize=1;strokeColor=none;fillColor=none;" vertex="1" parent="1">
          <mxGeometry x="1319.3500000000001" y="240" width="30" height="20" as="geometry" />
        </mxCell>
        <mxCell id="ysKvt91dj6pceFcTKJD--25" value="" style="edgeStyle=orthogonalEdgeStyle;rounded=0;orthogonalLoop=1;jettySize=auto;html=1;exitX=1;exitY=0.5;exitDx=0;exitDy=0;" edge="1" parent="1" source="ysKvt91dj6pceFcTKJD--10">
          <mxGeometry relative="1" as="geometry">
            <mxPoint x="1518.97" y="160" as="targetPoint" />
          </mxGeometry>
        </mxCell>
        <mxCell id="ysKvt91dj6pceFcTKJD--26" value="нет" style="text;html=1;align=center;verticalAlign=middle;resizable=0;points=[];autosize=1;strokeColor=none;fillColor=none;" vertex="1" parent="1">
          <mxGeometry x="1469.97" y="140" width="40" height="20" as="geometry" />
        </mxCell>
        <mxCell id="ysKvt91dj6pceFcTKJD--27" value="2" style="ellipse;whiteSpace=wrap;html=1;aspect=fixed;" vertex="1" parent="1">
          <mxGeometry x="1518.97" y="145" width="30" height="30" as="geometry" />
        </mxCell>
        <mxCell id="ysKvt91dj6pceFcTKJD--30" value="sum = 0" style="rounded=0;whiteSpace=wrap;html=1;" vertex="1" parent="1">
          <mxGeometry x="1359.99" y="190" width="99.97" height="30" as="geometry" />
        </mxCell>
        <mxCell id="ysKvt91dj6pceFcTKJD--33" value="i=i+1" style="rounded=0;whiteSpace=wrap;html=1;" vertex="1" parent="1">
          <mxGeometry x="1364.99" y="460" width="70" height="20" as="geometry" />
        </mxCell>
        <mxCell id="ysKvt91dj6pceFcTKJD--36" value="" style="edgeStyle=orthogonalEdgeStyle;rounded=0;orthogonalLoop=1;jettySize=auto;html=1;" edge="1" parent="1" source="ysKvt91dj6pceFcTKJD--35">
          <mxGeometry relative="1" as="geometry">
            <mxPoint x="1405.27" y="630" as="targetPoint" />
          </mxGeometry>
        </mxCell>
        <mxCell id="ysKvt91dj6pceFcTKJD--35" value="2" style="ellipse;whiteSpace=wrap;html=1;aspect=fixed;" vertex="1" parent="1">
          <mxGeometry x="1390.49" y="570" width="30" height="30" as="geometry" />
        </mxCell>
        <mxCell id="ysKvt91dj6pceFcTKJD--37" value="конец" style="rounded=1;whiteSpace=wrap;html=1;" vertex="1" parent="1">
          <mxGeometry x="1364.99" y="630" width="81" height="30" as="geometry" />
        </mxCell>
        <mxCell id="ysKvt91dj6pceFcTKJD--43" value="" style="edgeStyle=orthogonalEdgeStyle;rounded=0;orthogonalLoop=1;jettySize=auto;html=1;exitX=0;exitY=0.5;exitDx=0;exitDy=0;" edge="1" parent="1" source="ysKvt91dj6pceFcTKJD--39">
          <mxGeometry relative="1" as="geometry">
            <mxPoint x="1325" y="340" as="targetPoint" />
            <Array as="points" />
          </mxGeometry>
        </mxCell>
        <mxCell id="ysKvt91dj6pceFcTKJD--50" value="" style="edgeStyle=orthogonalEdgeStyle;rounded=0;orthogonalLoop=1;jettySize=auto;html=1;exitX=1;exitY=0.5;exitDx=0;exitDy=0;" edge="1" parent="1" source="ysKvt91dj6pceFcTKJD--39">
          <mxGeometry relative="1" as="geometry">
            <mxPoint x="1410" y="370" as="targetPoint" />
            <Array as="points">
              <mxPoint x="1500" y="320" />
              <mxPoint x="1500" y="350" />
              <mxPoint x="1410" y="350" />
            </Array>
          </mxGeometry>
        </mxCell>
        <mxCell id="ysKvt91dj6pceFcTKJD--39" value="matrix[i][j]%2 == 0" style="rhombus;whiteSpace=wrap;html=1;rounded=0;" vertex="1" parent="1">
          <mxGeometry x="1344.99" y="300" width="129.97" height="40" as="geometry" />
        </mxCell>
        <mxCell id="ysKvt91dj6pceFcTKJD--49" value="" style="edgeStyle=orthogonalEdgeStyle;rounded=0;orthogonalLoop=1;jettySize=auto;html=1;" edge="1" parent="1" source="ysKvt91dj6pceFcTKJD--41">
          <mxGeometry relative="1" as="geometry">
            <mxPoint x="1410" y="370" as="targetPoint" />
            <Array as="points">
              <mxPoint x="1410" y="350" />
            </Array>
          </mxGeometry>
        </mxCell>
        <mxCell id="ysKvt91dj6pceFcTKJD--41" value="sum +=matrix[i][j]" style="whiteSpace=wrap;html=1;rounded=0;" vertex="1" parent="1">
          <mxGeometry x="1270.75" y="340" width="99.22" height="30" as="geometry" />
        </mxCell>
        <mxCell id="ysKvt91dj6pceFcTKJD--45" value="да" style="text;html=1;align=center;verticalAlign=middle;resizable=0;points=[];autosize=1;strokeColor=none;fillColor=none;" vertex="1" parent="1">
          <mxGeometry x="1324.6100000000001" y="300" width="30" height="20" as="geometry" />
        </mxCell>
        <mxCell id="ysKvt91dj6pceFcTKJD--46" value="нет" style="text;html=1;align=center;verticalAlign=middle;resizable=0;points=[];autosize=1;strokeColor=none;fillColor=none;" vertex="1" parent="1">
          <mxGeometry x="1460.47" y="300" width="40" height="20" as="geometry" />
        </mxCell>
        <mxCell id="ysKvt91dj6pceFcTKJD--47" value="нет" style="text;html=1;align=center;verticalAlign=middle;resizable=0;points=[];autosize=1;strokeColor=none;fillColor=none;" vertex="1" parent="1">
          <mxGeometry x="1469.97" y="370" width="40" height="20" as="geometry" />
        </mxCell>
        <mxCell id="ysKvt91dj6pceFcTKJD--48" value="да" style="text;html=1;align=center;verticalAlign=middle;resizable=0;points=[];autosize=1;strokeColor=none;fillColor=none;" vertex="1" parent="1">
          <mxGeometry x="1319.9700000000003" y="370" width="30" height="20" as="geometry" />
        </mxCell>
        <mxCell id="ysKvt91dj6pceFcTKJD--52" value="" style="edgeStyle=orthogonalEdgeStyle;rounded=0;orthogonalLoop=1;jettySize=auto;html=1;" edge="1" parent="1" source="ysKvt91dj6pceFcTKJD--51">
          <mxGeometry relative="1" as="geometry">
            <mxPoint x="1300" y="400" as="targetPoint" />
            <Array as="points">
              <mxPoint x="1300" y="390" />
              <mxPoint x="1300" y="400" />
            </Array>
          </mxGeometry>
        </mxCell>
        <mxCell id="ysKvt91dj6pceFcTKJD--56" value="" style="edgeStyle=orthogonalEdgeStyle;rounded=0;orthogonalLoop=1;jettySize=auto;html=1;" edge="1" parent="1" source="ysKvt91dj6pceFcTKJD--51">
          <mxGeometry relative="1" as="geometry">
            <mxPoint x="1400" y="460" as="targetPoint" />
            <Array as="points">
              <mxPoint x="1500" y="390" />
              <mxPoint x="1500" y="440" />
              <mxPoint x="1400" y="440" />
            </Array>
          </mxGeometry>
        </mxCell>
        <mxCell id="ysKvt91dj6pceFcTKJD--51" value="sum &amp;gt; sum_temp" style="rhombus;whiteSpace=wrap;html=1;rounded=0;" vertex="1" parent="1">
          <mxGeometry x="1344.99" y="370" width="129.97" height="40" as="geometry" />
        </mxCell>
        <mxCell id="ysKvt91dj6pceFcTKJD--54" value="" style="edgeStyle=orthogonalEdgeStyle;rounded=0;orthogonalLoop=1;jettySize=auto;html=1;entryX=0.5;entryY=0;entryDx=0;entryDy=0;" edge="1" parent="1" source="ysKvt91dj6pceFcTKJD--53" target="ysKvt91dj6pceFcTKJD--33">
          <mxGeometry relative="1" as="geometry">
            <mxPoint x="1315.3799999999999" y="510" as="targetPoint" />
            <Array as="points">
              <mxPoint x="1315" y="440" />
              <mxPoint x="1400" y="440" />
            </Array>
          </mxGeometry>
        </mxCell>
        <mxCell id="ysKvt91dj6pceFcTKJD--53" value="sum_temp = sum" style="whiteSpace=wrap;html=1;rounded=0;" vertex="1" parent="1">
          <mxGeometry x="1265.77" y="400" width="99.22" height="30" as="geometry" />
        </mxCell>
        <mxCell id="ysKvt91dj6pceFcTKJD--61" value="" style="edgeStyle=orthogonalEdgeStyle;rounded=0;orthogonalLoop=1;jettySize=auto;html=1;exitX=0.512;exitY=0.866;exitDx=0;exitDy=0;exitPerimeter=0;" edge="1" parent="1" source="ysKvt91dj6pceFcTKJD--60">
          <mxGeometry relative="1" as="geometry">
            <mxPoint x="1320" y="540" as="targetPoint" />
            <mxPoint x="1493" y="550" as="sourcePoint" />
            <Array as="points">
              <mxPoint x="1495" y="560" />
              <mxPoint x="1383" y="560" />
              <mxPoint x="1383" y="525" />
              <mxPoint x="1320" y="525" />
            </Array>
          </mxGeometry>
        </mxCell>
        <mxCell id="ysKvt91dj6pceFcTKJD--60" value="&quot;Summ &quot;, j+1, &quot;line&quot;, sum" style="shape=document;whiteSpace=wrap;html=1;boundedLbl=1;" vertex="1" parent="1">
          <mxGeometry x="1445.99" y="500" width="94.97" height="50" as="geometry" />
        </mxCell>
      </root>
    </mxGraphModel>
  </diagram>
</mxfile>
